<?xml version="1.0" encoding="iso-8859-1"?>
<!-- Generator: Adobe Illustrator 16.0.0, SVG Export Plug-In . SVG Version: 6.00 Build 0)  -->
<!DOCTYPE svg PUBLIC "-//W3C//DTD SVG 1.1//EN" "http://www.w3.org/Graphics/SVG/1.1/DTD/svg11.dtd">
<svg version="1.1" id="Capa_1" xmlns="http://www.w3.org/2000/svg" xmlns:xlink="http://www.w3.org/1999/xlink" x="0px" y="0px"
	 width="512px" height="512px" viewBox="0 0 512 512" style="enable-background:new 0 0 512 512;" xml:space="preserve">
<g>
	<path d="M481.594,208.313L398.312,40.875C395.625,35.438,390.062,32,384,32h-48c0-8.844-7.156-16-16-16H192
		c-8.844,0-16,7.156-16,16h-48c-6.063,0-11.594,3.438-14.313,8.844L29.891,208.438C13.25,209.563,0,223.063,0,240
		c0,17.688,14.328,32,32,32v192c0,17.688,14.328,32,32,32h384c17.688,0,32-14.312,32-32V272c17.688,0,32-14.312,32-32
		C512,222.875,498.5,209.188,481.594,208.313z M137.891,64H176c0,8.844,7.156,16,16,16h128c8.844,0,16-7.156,16-16h38.094
		l71.625,144H65.891L137.891,64z M112,448c0,8.844-7.156,16-16,16s-16-7.156-16-16V288c0-8.844,7.156-16,16-16s16,7.156,16,16V448z
		 M176,448c0,8.844-7.156,16-16,16s-16-7.156-16-16V288c0-8.844,7.156-16,16-16s16,7.156,16,16V448z M240,448
		c0,8.844-7.156,16-16,16s-16-7.156-16-16V288c0-8.844,7.156-16,16-16s16,7.156,16,16V448z M304,448c0,8.844-7.156,16-16,16
		s-16-7.156-16-16V288c0-8.844,7.156-16,16-16s16,7.156,16,16V448z M368,448c0,8.844-7.156,16-16,16s-16-7.156-16-16V288
		c0-8.844,7.156-16,16-16s16,7.156,16,16V448z M432,448c0,8.844-7.156,16-16,16s-16-7.156-16-16V288c0-8.844,7.156-16,16-16
		s16,7.156,16,16V448z"/>
</g>
<g>
</g>
<g>
</g>
<g>
</g>
<g>
</g>
<g>
</g>
<g>
</g>
<g>
</g>
<g>
</g>
<g>
</g>
<g>
</g>
<g>
</g>
<g>
</g>
<g>
</g>
<g>
</g>
<g>
</g>
</svg>
